<svg id="apple-black-logo" xmlns="http://www.w3.org/2000/svg" width="25.554" height="31.327" viewBox="0 0 25.554 31.327">
  <g id="Group_13" data-name="Group 13" transform="translate(0)">
    <path id="Path_63" data-name="Path 63" d="M67.676,131.028c-.862-4.337,3.255-6.88,3.255-6.88a7.865,7.865,0,0,0-4.3-2.917,7.493,7.493,0,0,0-5.388.71,6,6,0,0,1-2.019.562c-1.944,0-3.365-2.058-7.069-1.121-2.552.644-5.238,3.589-5.723,7.1a19.269,19.269,0,0,0,2.581,11.482c2.019,3.481,4.076,4.789,5.536,4.826s2.917-1.046,4.674-1.309,2.841.637,4.565,1.123,2.32.035,4.3-1.648,3.78-6.511,3.78-6.511A6.972,6.972,0,0,1,67.676,131.028Z" transform="translate(-46.315 -113.468)" fill="#fff"/>
    <path id="Path_64" data-name="Path 64" d="M256.674,4.957C258.583,3.011,257.937,0,257.937,0a9.144,9.144,0,0,0-4.477,2.339,6.738,6.738,0,0,0-1.5,4.824A8.435,8.435,0,0,0,256.674,4.957Z" transform="translate(-239.129)" fill="#fff"/>
  </g>
</svg>
