<svg id="Group_5526" data-name="Group 5526" xmlns="http://www.w3.org/2000/svg" width="25.934" height="28.562" viewBox="0 0 25.934 28.562">
  <g id="android-new" transform="translate(0)">
    <path id="Path_6826" data-name="Path 6826" d="M67.053,9.827C63.738,7.971,58.41,4.992,50.149.366A1.995,1.995,0,0,0,48.386.142l.014,0L62.57,14.31Z" transform="translate(-47.036 -0.03)" fill="#32bbff"/>
    <path id="Path_6827" data-name="Path 6827" d="M1.361,3.862A2.01,2.01,0,0,0,1.049,4l.011-.005A2,2,0,0,0,0,5.753s0,.007,0,.01H0V30.3s0,.007,0,.01a1.992,1.992,0,0,0,1.05,1.756l.011.005a1.957,1.957,0,0,0,.287.125l.014,0L15.533,18.034Z" transform="translate(0.001 -3.754)" fill="#32bbff"/>
    <path id="Path_6828" data-name="Path 6828" d="M62.992,511.967,48.82,526.136a1.932,1.932,0,0,0,.646.109,1.963,1.963,0,0,0,1.11-.342l-.007,0c8.01-4.485,13.276-7.43,16.632-9.3l.276-.155Z" transform="translate(-47.458 -497.687)" fill="#32bbff"/>
    <path id="Path_6829" data-name="Path 6829" d="M0,511.967v12.271s0,.007,0,.01A1.992,1.992,0,0,0,1.049,526l.011.005a1.953,1.953,0,0,0,.287.124l.014,0,14.172-14.171Z" transform="translate(0.001 -497.687)" fill="#2c9fd9"/>
    <path id="Path_6830" data-name="Path 6830" d="M39.714.335A2,2,0,0,0,37.651.241l.01-.005L51.919,14.493l4.7-4.7C53.3,7.94,47.974,4.961,39.714.335Z" transform="translate(-36.601 0.001)" fill="#29cc5e"/>
    <path id="Path_6831" data-name="Path 6831" d="M52.285,504.243,38.026,518.5a1.985,1.985,0,0,0,2.059-.1l-.007,0c8.01-4.486,13.276-7.43,16.632-9.3l.276-.155Z" transform="translate(-36.965 -490.179)" fill="#d93f21"/>
    <path id="Path_6832" data-name="Path 6832" d="M552.341,350.274s0-.007,0-.011a1.987,1.987,0,0,0-1.013-1.733l-.01-.005-5.17-2.89-4.637,4.639,4.641,4.641c3.856-2.164,5.166-2.895,5.166-2.895a1.99,1.99,0,0,0,1.023-1.738v-.009h0Z" transform="translate(-526.407 -335.995)" fill="#ffd500"/>
    <path id="Path_6833" data-name="Path 6833" d="M551.317,513.6a1.991,1.991,0,0,0,1.023-1.738v-.012H541.51l4.641,4.641C550.007,514.326,551.317,513.6,551.317,513.6Z" transform="translate(-526.406 -497.57)" fill="#fa0"/>
  </g>
</svg>
