<svg xmlns="http://www.w3.org/2000/svg" width="48" height="47.802" viewBox="0 0 48 47.802">
  <g id="Group_147928" data-name="Group 147928" transform="translate(-85.768 -2116.52)">
    <g id="money" transform="translate(85.768 2116.52)">
      <path id="Path_85966" data-name="Path 85966" d="M197.13,1.4a.7.7,0,0,0-.6-.335H184.463a.7.7,0,0,0-.624,1.021l2.53,4.947a.7.7,0,0,0,.624.382H194a.7.7,0,0,0,.625-.382l2.53-4.947A.7.7,0,0,0,197.13,1.4Z" transform="translate(-166.534 -1.06)" fill="#8acc19"/>
      <path id="Path_85967" data-name="Path 85967" d="M264.679,1.4a.7.7,0,0,0-.6-.335h-3.252a.7.7,0,0,1,.624,1.021l-2.53,4.947a.7.7,0,0,1-.625.382h3.252a.7.7,0,0,0,.625-.382l2.53-4.947A.7.7,0,0,0,264.679,1.4Z" transform="translate(-234.083 -1.06)" fill="#78aa17"/>
      <path id="Path_85968" data-name="Path 85968" d="M157.823,88.551a17.977,17.977,0,0,0-4.778-5.038.7.7,0,0,0-.4-.127H145a.7.7,0,0,0-.4.127,17.975,17.975,0,0,0-4.778,5.038,11.949,11.949,0,0,0-2.048,6.238,6.764,6.764,0,0,0,3.7,6.1,16.79,16.79,0,0,0,14.689,0,6.764,6.764,0,0,0,3.7-6.1A11.952,11.952,0,0,0,157.823,88.551Z" transform="translate(-124.86 -75.669)" fill="#8acc19"/>
      <path id="Path_85969" data-name="Path 85969" d="M248.89,88.551a17.977,17.977,0,0,0-4.778-5.038.7.7,0,0,0-.4-.127h-3.252a.7.7,0,0,1,.4.127,17.978,17.978,0,0,1,4.778,5.038,11.95,11.95,0,0,1,2.048,6.238,6.764,6.764,0,0,1-3.7,6.1,14.133,14.133,0,0,1-5.719,1.623c.532.045,1.075.069,1.626.069a15.154,15.154,0,0,0,7.345-1.692,6.764,6.764,0,0,0,3.7-6.1A11.952,11.952,0,0,0,248.89,88.551Z" transform="translate(-215.928 -75.669)" fill="#78aa17"/>
      <path id="Path_85971" data-name="Path 85971" d="M344.809,241.337l2.327-7.144a1.975,1.975,0,0,1,3.765,1.2l-.77,2.48a.7.7,0,0,1-.18.294l-3.984,3.892a.7.7,0,0,1-1.157-.719Z" transform="translate(-312.452 -211.1)" fill="#db9975"/>
      <path id="Path_85972" data-name="Path 85972" d="M345.476,242.358a.7.7,0,0,1-.667-.919l2.327-7.144a1.963,1.963,0,0,1,1.673-1.354l-2.518,8.9-.325.317A.7.7,0,0,1,345.476,242.358Z" transform="translate(-312.451 -211.202)" fill="#f7b081"/>
      <g id="Group_147923" data-name="Group 147923" transform="translate(33.817 17.99)">
        <path id="Path_85973" data-name="Path 85973" d="M387.307,220.969l1.546-4.979a1.922,1.922,0,1,1,3.664,1.161l-1.121,3.465a.7.7,0,0,1-1.169.274.666.666,0,0,0-.942-.011l-.818.8a.7.7,0,0,1-1.16-.71Z" transform="translate(-384.784 -212.605)" fill="#db9975"/>
        <path id="Path_85974" data-name="Path 85974" d="M360.861,208.836l5.335-6.715a.667.667,0,0,0-.045-.88.7.7,0,0,1-.166-.706L368,194.3a1.936,1.936,0,0,1,3.7,1.15l-1.084,3.627a16.737,16.737,0,0,1-5.891,8.542l-2.889,2.214a.7.7,0,0,1-.976-.993Z" transform="translate(-360.709 -192.955)" fill="#db9975"/>
      </g>
      <g id="Group_147924" data-name="Group 147924" transform="translate(33.817 17.995)">
        <path id="Path_85975" data-name="Path 85975" d="M387.307,221.112l1.546-4.979a1.919,1.919,0,0,1,1.606-1.338l-2.072,7.093a.7.7,0,0,1-1.08-.776Z" transform="translate(-384.784 -212.752)" fill="#f7b081"/>
        <path id="Path_85976" data-name="Path 85976" d="M361.51,210.013a.689.689,0,0,1-.6-.2.7.7,0,0,1-.049-.928l5.335-6.715a.667.667,0,0,0-.045-.88.7.7,0,0,1-.166-.706l2.018-6.24a1.944,1.944,0,0,1,1.744-1.336l-3.455,11.039Z" transform="translate(-360.709 -193.007)" fill="#f7b081"/>
      </g>
      <path id="Path_85977" data-name="Path 85977" d="M274.514,207.744a14.289,14.289,0,0,1,2.243-6.147,11.258,11.258,0,0,1,4.653-3.741l4.7-4.593a2.071,2.071,0,0,1,2.926.034c.027.028.053.056.078.085a1.922,1.922,0,0,1,.009,2.469l-5.831,7.16,4.978-4.935a7.189,7.189,0,0,0,1.8-2.953l.812-2.586,0,0c.1-.273.191-.55.275-.83l1.481-4.954,0-.015a2.119,2.119,0,0,1,4.041,1.275l-2.216,7.192c-.113.367-.226.742-.34,1.122-1.021,3.4-2.178,7.255-4.967,9.533l-5.163,4.217V215.1a.7.7,0,0,1-.7.7h-8.081a.7.7,0,0,1-.7-.7v-7.291C274.511,207.788,274.512,207.766,274.514,207.744Z" transform="translate(-248.775 -168.001)" fill="#ffc89f"/>
      <g id="Group_147925" data-name="Group 147925" transform="translate(32.8 17.332)">
        <path id="Path_85978" data-name="Path 85978" d="M369.012,270.925a1.922,1.922,0,0,0-.009-2.469q-.038-.043-.078-.085a2.061,2.061,0,0,0-.31-.26l-5.6,7.089a2.64,2.64,0,0,0,.17,2.883Z" transform="translate(-361.462 -260.407)" fill="#ffb98a"/>
        <path id="Path_85979" data-name="Path 85979" d="M368.193,374.483h0Z" transform="translate(-366.475 -356.806)" fill="#ffb98a"/>
        <path id="Path_85980" data-name="Path 85980" d="M364.74,186.86a2.115,2.115,0,0,0-1.291-.93l-2.8,9.081c-1.111,3.605-2.158,7.651-5.08,10.037l-5.7,4.427V216.4h1.718a.7.7,0,0,0,.7-.7v-5.024l5.163-4.217c2.789-2.278,3.946-6.132,4.967-9.533.114-.379.226-.754.34-1.122l2.216-7.192A2.117,2.117,0,0,0,364.74,186.86Z" transform="translate(-349.864 -185.93)" fill="#ffb98a"/>
      </g>
      <path id="Path_85981" data-name="Path 85981" d="M107.114,241.337l-2.327-7.144a1.975,1.975,0,0,0-3.765,1.2l.77,2.48a.7.7,0,0,0,.18.294l3.984,3.892a.7.7,0,0,0,1.157-.719Z" transform="translate(-91.471 -211.1)" fill="#db9975"/>
      <path id="Path_85982" data-name="Path 85982" d="M127.527,242.358a.7.7,0,0,0,.667-.919l-2.327-7.144a1.963,1.963,0,0,0-1.673-1.354l2.518,8.9.325.317A.7.7,0,0,0,127.527,242.358Z" transform="translate(-112.551 -211.202)" fill="#f7b081"/>
      <g id="Group_147926" data-name="Group 147926" transform="translate(3.111 17.99)">
        <path id="Path_85983" data-name="Path 85983" d="M73.13,220.969l-1.546-4.979a1.922,1.922,0,1,0-3.664,1.161l1.121,3.465a.7.7,0,0,0,1.169.274.666.666,0,0,1,.942-.011l.818.8a.7.7,0,0,0,1.16-.71Z" transform="translate(-64.579 -212.605)" fill="#db9975"/>
        <path id="Path_85984" data-name="Path 85984" d="M44.1,208.836l-5.335-6.715a.667.667,0,0,1,.045-.88.7.7,0,0,0,.166-.706l-2.018-6.24a1.936,1.936,0,0,0-3.7,1.15l1.084,3.627a16.737,16.737,0,0,0,5.89,8.542l2.889,2.214a.7.7,0,0,0,.976-.993Z" transform="translate(-33.181 -192.955)" fill="#db9975"/>
      </g>
      <g id="Group_147927" data-name="Group 147927" transform="translate(5.145 17.995)">
        <path id="Path_85985" data-name="Path 85985" d="M93.916,221.112l-1.546-4.979a1.919,1.919,0,0,0-1.606-1.338l2.072,7.093a.7.7,0,0,0,1.08-.776Z" transform="translate(-87.4 -212.752)" fill="#f7b081"/>
        <path id="Path_85986" data-name="Path 85986" d="M63.119,210.013a.689.689,0,0,0,.6-.2.7.7,0,0,0,.049-.928l-5.335-6.715a.667.667,0,0,1,.045-.88.7.7,0,0,0,.166-.706l-2.018-6.24a1.944,1.944,0,0,0-1.744-1.336l3.455,11.039Z" transform="translate(-54.882 -193.007)" fill="#f7b081"/>
      </g>
      <path id="Path_85987" data-name="Path 85987" d="M22.263,207.744a14.289,14.289,0,0,0-2.243-6.147,11.258,11.258,0,0,0-4.653-3.741l-4.7-4.593a2.071,2.071,0,0,0-2.926.034q-.041.041-.078.085a1.922,1.922,0,0,0-.009,2.469l5.831,7.16L8.5,198.076a7.19,7.19,0,0,1-1.8-2.953l-.812-2.586,0,0c-.1-.273-.191-.55-.275-.83L4.14,186.754l0-.015A2.119,2.119,0,0,0,.1,188.014l2.216,7.192c.113.367.226.742.34,1.122,1.021,3.4,2.178,7.255,4.967,9.533l5.163,4.217V215.1a.7.7,0,0,0,.7.7h8.081a.7.7,0,0,0,.7-.7v-7.291A.666.666,0,0,0,22.263,207.744Z" transform="translate(-0.001 -168.001)" fill="#ffc89f"/>
      <path id="Path_85988" data-name="Path 85988" d="M94.054,273.164a11.258,11.258,0,0,0-4.653-3.741l-4.7-4.593a2.071,2.071,0,0,0-2.926.034q-.041.041-.078.085h0l5.655,5.821a10.524,10.524,0,0,1,4.469,3.545,13.683,13.683,0,0,1,2.118,5.81v7.244H95.6a.7.7,0,0,0,.7-.7v-7.291q0-.034,0-.067A14.288,14.288,0,0,0,94.054,273.164Z" transform="translate(-74.036 -239.569)" fill="#ffb98a"/>
      <path id="Path_85989" data-name="Path 85989" d="M203.633,53.823h-7.338a2.087,2.087,0,1,0,0,4.175h7.338a2.087,2.087,0,1,0,0-4.175Z" transform="translate(-176 -48.876)" fill="#ffdb56"/>
      <path id="Path_85990" data-name="Path 85990" d="M263.309,53.823h-3.252a2.087,2.087,0,1,1,0,4.175h3.252a2.087,2.087,0,1,0,0-4.175Z" transform="translate(-235.676 -48.876)" fill="#f2b711"/>
    </g>
    <path id="Path_85991" data-name="Path 85991" d="M-4.859-32.331l-.37,1.411h-6.8l.365-1.411ZM-8.4-24.517l-3.471-4.13.005-1.269h1.715a1.962,1.962,0,0,0,.959-.213,1.4,1.4,0,0,0,.578-.578,1.8,1.8,0,0,0,.2-.832,1.655,1.655,0,0,0-.408-1.144,1.719,1.719,0,0,0-1.327-.444h-1.888l.416-1.781h1.472a5.278,5.278,0,0,1,2.159.388,2.811,2.811,0,0,1,1.3,1.1,3.259,3.259,0,0,1,.439,1.7,3.85,3.85,0,0,1-.292,1.532,2.612,2.612,0,0,1-.9,1.091,4.289,4.289,0,0,1-1.591.649l-.081.03,3.105,3.8v.091Zm3.547-10.392-.381,1.431h-5.6l.381-1.431Z" transform="translate(117.196 2164.35)" fill="#fff"/>
  </g>
</svg>
