<svg id="Group_164741" data-name="Group 164741" xmlns="http://www.w3.org/2000/svg" xmlns:xlink="http://www.w3.org/1999/xlink" width="539.5" height="97.898" viewBox="0 0 539.5 97.898">
  <defs>
    <clipPath id="clip-path">
      <rect id="Rectangle_72607" data-name="Rectangle 72607" width="539.5" height="97.898" fill="none"/>
    </clipPath>
  </defs>
  <g id="Group_164740" data-name="Group 164740" clip-path="url(#clip-path)">
    <path id="Path_136914" data-name="Path 136914" d="M138.1,92.693c-.953-2.486-.406-5.809-5.144-5.081-3.762.578-3.682,2.572-4.33,5.087q-.711-2.492-1.423-4.984l-1.088-.178q-1.326,2.6-2.651,5.2l-1.211-.077V84.747q0-1.208,0-2.414c.016-6.756.016-6.753-6.672-6.861-.525-.009-1.049-.092-1.835-.164-.214-1.285-.426-2.551-.635-3.809-5.26-1.489-5.776-1.109-5.809,4.326-.017,2.718,0,5.438,0,8.156l-1.248.073c-.535-3.85-1.078-7.7-1.6-11.549a13.979,13.979,0,0,0-.468-3.533,19.563,19.563,0,0,0-2.368-3.419c-.853,1.182-2.109,2.253-2.467,3.57a44.043,44.043,0,0,0-.795,6.839c-3.03-3.018-6.66-2.72-9.659-.308-1.327,1.067-3.587.972-6.1,1.564,1.713-5.448,3.063-10.169,4.766-14.758.3-.82,2.06-1.508,3.172-1.551,4.515-.173,9.041-.072,14.195-.072L95.8,31.209l-.856-.079c-.609,1.927-1.225,3.852-1.829,5.782C89.873,47.271,86.538,57.6,83.426,68c-2,6.67-1.848,6.714-8.8,7.949-1.438,5.414,2.936,14.107-8.08,15.112-.166-2.782-.322-5.376-.533-8.9L54.96,84.784c-.16,2.206-.321,4.408-.494,6.782-4.571-.517-2.058-3.367-2.011-5.956-2.3-1.087-4.716-2.712-7.369-3.364-4.019-.987-6.412,1.052-6.888,5.128a7.779,7.779,0,0,1-.167,1.99,16.711,16.711,0,0,1-1.483,2.41c-.455-.806-.97-1.586-1.34-2.429A2.943,2.943,0,0,0,34.155,87.6l-1.539,5.47-.7.144a35.472,35.472,0,0,1-.867-5.414c-.08-8.715-.008-17.431-.014-26.147,0-1.31-.127-2.619-.221-4.413H0V37.587c8.6,0,17.006,0,25.41,0,5.622,0,5.615-.013,5.612-5.615,0-10.432,0-20.865,0-31.6H53.558V80.756l.916.127c2.882-8,5.809-15.989,8.638-24.01q9.425-26.727,18.723-53.5C82.651,1.008,83.669-.083,86.343,0c6.162.2,12.338.143,18.5.019,2.376-.048,3.529.766,4.314,3.084q14.571,43.031,29.314,86a29.324,29.324,0,0,1,.725,3.262l-1.1.32M52.574,31.129l-.409-1.372L40.683,26.4c.351,3.509.589,5.882.826,8.255l1.2-.046c.326-.867.653-1.735,1.368-3.633.424,4.666,3.028,3.5,4.8,2.989,1.389-.4,2.476-1.85,3.7-2.833M46.231,75.04a26.766,26.766,0,0,0,2.839-2.752,15.262,15.262,0,0,0-1.734-1.925l-.825,2.88c-3.775-2.463-4.114-2.255-6.262,3.3l4.4,2.989,1.577-4.492M70.605,49.683c2.541-2.862,4.2-4.735,6.292-7.089-.895-.324-2.32-1.37-3.089-1.011a10.066,10.066,0,0,0-4.476,3.624c-.513.9.745,2.809,1.273,4.476m5.526-13.931q.2.93.409,1.859l6.5.867-1.81-6.191-5.095,3.465m3.31,9.551L73.9,46.575c5.189,3.238,5.189,3.238,5.541-1.273" transform="translate(321.048 2.878)" fill="#fff"/>
    <path id="Path_136915" data-name="Path 136915" d="M67.751,74.89c-3.425-2.093-6.323-1.422-9.51.838-1.438,1.02-5.1,1.288-5.939.323-2.513-2.9-4.986-.513-7.366-.6-.307-.01-.925,2.947-1.039,4.554-.259,3.673,1.262,7.918-3.5,9.966-1.25.537-2.575.9-4.209,1.459V82.1L24.632,84.513c-.178,2.221-.355,4.417-.5,6.222H11.7c-.124-2.458-.277-5.466-.448-8.836H2.424V92.361L1,92.45a51.086,51.086,0,0,1-.963-7.013Q-.055,44.013.023,2.591A20,20,0,0,1,.311.326h22.8V74.952c15.042,2.854,27.647-5.53,29.951-20.063,1.371-8.646.454-17.163-5-24.563-5.671-7.69-13.846-9.46-23.319-9.066,0-6.672-.1-12.928.138-19.171C24.9,1.361,26.8.166,27.884.1,49.325-1.193,66.673,10.11,74.065,30.294c4.386,11.977,4.66,24.063.145,36.166-4.39-2.285-4.538-3.036-6.46,8.43M19.7,8.429c.2.533-.189.034-.086-.322.33-1.139.843-2.224,1.285-3.33-1.3-.166-2.6-.344-3.908-.491-.384-.044-1.04.149-1.13-.011C13.618.241,9.835,5.381,7.217,2.856a11.787,11.787,0,0,0,4.76,3.278c2.713.982,5.536,1.66,7.719,2.3M63.963,20c-1.223-1.947-2.187-3.371-3.02-4.868a6.422,6.422,0,0,1-.4-1.86,6.67,6.67,0,0,0-2.158,1.057c-1.619,1.79-3.081,3.722-4.662,5.672ZM13.9,44.03c.4-1.679.793-3.29,1.415-5.874C10.23,40.2,11.276,43.379,11.481,45.7l8.949.777c-.064-.757-.146-1.751-.2-2.447ZM2.439,34.4c.282,3.886.534,7.35.785,10.816,1.312-1.653,1.182-3.85,2.192-5.186,2.777-3.67.123-4.318-2.977-5.63m53.354-6.44c-4.712.1-4.857.487-2.691,6.153,3.655-.7,3.594-3.173,2.691-6.153m-44.63,1.4-5.891-1.4,1.418,5.6,4.473-4.2M14.952,59.6l-3.375,6.139c5.3.038,4.82-2.856,3.375-6.139M11.728,32.291l7.008-3.755-5.292-1.688c-.639,2.028-1.053,3.34-1.716,5.443M9.343,73.326l3.084-3.485-.217-.356-2.981,1.7L3.907,68l-.184.527,5.62,4.795M2.528,53.105l3.746-5.456c-4.513-.742-4.619-.593-3.746,5.456" transform="translate(152.405 3.003)" fill="#fff"/>
    <path id="Path_136916" data-name="Path 136916" d="M87.058,92.655c-1.077-1.7-1.873-3.732-3.343-4.958-.791-.66-3.1-.431-4.072.285-1.281.944-1.917,2.76-2.752,4.075L75.62,87.7l-.992-.224-3.345,6.314c-.272-2.1-.478-3.117-.521-4.144-.062-1.472,0-2.948,0-4.423.007-9.034.007-9.034-8.73-10.1L61.4,71.371c-5.4-1.2-5.646-1.005-5.682,4.268q-.027,3.815-.139,7.63c-.006.191-.322.374-1.06,1.174-.621-4.272-1.19-8.052-1.707-11.84-.108-.79.222-1.717-.081-2.388-.733-1.626-1.719-3.137-2.6-4.694-.991,1.552-2.307,2.995-2.88,4.688-.532,1.571-.272,3.41-.366,5.212-3.578-1.528-6.809-3.692-10.052.493-.772,1-3.2.709-5.89,1.2,1.813-5.542,3.341-10.546,5.183-15.432.231-.611,2.116-.811,3.242-.834,4.364-.093,8.732-.038,13.734-.038-3.085-10.289-5.95-19.845-9.077-30.271a29.886,29.886,0,0,0-1.649,3.38c-3.714,11.9-7.649,23.731-10.945,35.743-1.3,4.725-4.051,6.089-7.956,6-.746,4.443-.991,8.756-2.37,12.669-.53,1.5-3.643,2.1-6.243,3.449-.17-3.595-.282-5.967-.449-9.5l-11,2.432c-.193,2.3-.379,4.505-.57,6.776C-.451,90.3-.465,90.3.711,86.987,5.064,74.743,9.449,62.509,13.78,50.257,19.317,34.6,24.872,18.94,30.267,3.229,31.116.756,32.312-.07,34.868,0q9.043.261,18.1,0c2.581-.073,3.77.816,4.6,3.279Q71.482,44.4,85.589,85.442c.784,2.3,1.5,4.615,2.252,6.923l-.783.29M19.544,49.519l5.38-6.7c-1.439-1.459-5.2-1.548-6.5.462a4.273,4.273,0,0,0,1.124,6.236M32.57,37.432c-1.633-2.142-2.814-3.693-4-5.243-1.073,1.223-3.119,2.582-2.971,3.632.184,1.3,2.05,2.606,3.48,3.354.562.294,1.909-.912,3.487-1.744" transform="translate(63.915 2.894)" fill="#fff"/>
    <path id="Path_136917" data-name="Path 136917" d="M41.376,89.659a62.972,62.972,0,0,0-.615-7.327c-.241-1.256-1.328-2.351-2.033-3.518a18.067,18.067,0,0,0-2.282,2.834c-1.03,1.959-1.826,4.041-2.488,5.546l-9.8-1.265-.676-3.375L15,85.157c0-4.015,0-6.955,0-9.893C15,70.535,14.89,70.455,9.665,71.68c0,2.469-.044,5.1.011,7.723.064,3.039-.928,3.815-3.748,2.206-2.07-1.181-3.223-.342-3.191,2.158.026,2.008-.218,4.019-.341,6.028l-1.429.134a15.693,15.693,0,0,1-.894-3.644Q-.014,44.858,0,3.432C0,1.674.01.288,2.464.331,9.012.447,15.565.37,22.61.37V37.65C30.849,39.393,36.5,36.921,37.4,31.5c1.311-7.862-1.564-10.785-12.669-12.411V1.006C37.408-2.106,50.42,2.218,55.518,11c5.914,10.192,3.59,24.341-5.652,34.4,15.429,5.981,21.114,18.8,15.4,34.968H58.721c-1.416-2.484,1.8-7.56-3.843-7.219-5.393.326-2.037,5.13-3.634,7.84-3.74-.85-6.121.1-5.853,4.923.072,1.292-1.967,2.7-3.036,4.056l-.979-.309M23.051,56.671V78.306c4.874-.5,9.44-.588,13.824-1.527,4.8-1.029,7-4.631,7.016-9.935.013-4.5-2.037-7.761-6.726-8.774-4.494-.971-9.2-.955-14.114-1.4M3.267,33.1c.152,1.086-.062,2.862.52,3.18,3.924,2.141.924,2.364-.658,3.406-.916.6-1.316,1.989-1.811,2.8,2.446,1.705,4.67,2.889,6.411,4.572A40.822,40.822,0,0,1,11.9,52.573c2.578-1.484,8.508-.113,4.63-5.946l6.892-.368c-1.962-1.514-3.062-2.465-4.264-3.261-1.144-.758-2.394-1.355-3.6-2.022a9.431,9.431,0,0,0,1.829,3.52c.064.093-.6.984-.976,1.023-2.7.28-5.423.437-7.5.587-.543-2.056-.979-3.356-1.22-4.691-.448-2.479-2.155-5.056,1.157-7.183.736-.473.608-2.922.263-4.308-.6-2.4-1.314-4.416,2.372-4.517,2.951-.081,5.9-.4,8.947-.617.194-1.09.8-2.316.44-3.117a2.941,2.941,0,0,0-2.565-1.31c-3.3,1.175-6.4,2.93-9.729,3.989-2.11.672-4.494.484-6.7.676v4.558c.925-.266,2.2-.814,2.314-.636a10.661,10.661,0,0,1,1.269,3.274,14.071,14.071,0,0,1-2.195.874m41.414,2.485c.626,1.543,1.36,3.346,1.841,4.53L38.24,50.178l4.86,2.45c-.011-4.5,1.817-3.708,3.9-1.6l2.387-3.567-4.1.832c1.315-2.487,3.126-4.007,4.687-5.75a15.036,15.036,0,0,0,1.752-3.329L48.181,37.9l1.143-1.738-4.643-.578M21.194,27.941,11,28.983c.559,1.22.9,1.971,1.3,2.842L13.2,30.55l5.6,4.752,2.4-7.362M3.283,60.222l5.379,1.707c.319-5.964-.845-8.238-4.33-7.843,4.33,2.731,1.14,4.269-1.049,6.136m55.675,10.2c-.9-3.532-1.64-6.427-2.441-9.564-3.234,3.82-1.025,6.929.271,10.34l2.17-.776m-8.782.485,1.329-.4-1.688-4.155,1.773-1.313-.28-.642-3.8.413a16.139,16.139,0,0,0,.721,3.283,18.583,18.583,0,0,0,1.948,2.815" transform="translate(0 2.903)" fill="#fff"/>
    <path id="Path_136918" data-name="Path 136918" d="M49.892,26.275c-5.328-1.867-9.936-3.92-14.764-4.975-2.189-.478-5.086.542-7.182,1.729a6.777,6.777,0,0,0-.594,11.69,37.732,37.732,0,0,0,7.5,3.749c5.044,2.149,10.317,3.824,15.183,6.305a20.555,20.555,0,0,1,11.31,15.271A39.911,39.911,0,0,1,59.9,79.914q-.648-3.231-1.3-6.464c-3.77,4.82-1.85,10.189-3.551,15.3L53.7,80.642c-6.9-.063-1.942,6.7-5.676,8.687a20.358,20.358,0,0,1-.405-2.606c-.1-5.02-1.72-6.447-5.941-3.79-3.208,2.019-6.112,2.556-9.01,1.386-1.127-.836-2.222-2.339-3.385-2.394-5.148-.24-1.425,4.489-3.668,6.5l-4.279-6.455c-.459,2.64-.792,4.558-1.219,7.015-.394-2.561-.708-4.605-1.024-6.646-5.245.729-5.537,4.579-5.684,8.926-4.573-1.32-.973-5.9-3.84-7.634L7.763,84.8c0-.955.264-1.892-.066-2.511-.424-.792-1.511-1.972-1.983-1.837A3.488,3.488,0,0,0,3.441,82.53a47.057,47.057,0,0,0-.108,6.876L0,84.8,6.464,71.807c5.085,2.778,9.7,5.688,14.63,7.869A13.544,13.544,0,0,0,33.516,79c5.657-3.194,6.371-10.383,1.3-14.375a27.488,27.488,0,0,0-7.014-3.749c-3.111-1.214-6.432-1.879-9.584-3C4.922,53.149-.423,44.944.5,30.853,1.938,8.826,18.007-3.626,39.662.936c5.561,1.172,10.88,3.6,16.179,5.776.842.346,1.708,2.7,1.327,3.62C54.811,16,52.1,21.526,49.892,26.275m-7.243-5.656c.139-5.287-.447-6.06-5.517-6.829-4.442-.673-1.958,3.623-4.353,5.178l9.87,1.651M15.042,22.1h9.347l-2.3-6.644c-4.616-1.32-3.679,5.462-7.05,6.644M4.7,35.853l2.1-.215c.172-1.684.469-3.368.481-5.053a49.1,49.1,0,0,0-.5-5.054c-5.037-2.022-1.117,5.247-4.346,5.385Q3.569,33.384,4.7,35.853m6.709-1.1,2.282-1.776c-.4,1.741-.617,2.694-.892,3.9l4.509-2.416c-.1-1.394-.189-2.741-.288-4.152-4.142-1.5-4.646,1.781-5.611,4.442" transform="translate(232.686 0)" fill="#fff"/>
    <path id="Path_136919" data-name="Path 136919" d="M31.962,92.839c-1.287-11.786.043-23.719-.822-36.067-7.924,0-15.648-.019-23.371.006C.142,56.8.139,56.823.09,49.268.072,46.455.21,43.631.022,40.829s.827-3.749,3.666-3.69c7.77.16,15.546.056,23.319.036,1.308,0,2.617-.114,4.338-.2V0H53.911V85.876c-2.731-1.321-5.457-3.137-8.455-3.969-4.049-1.123-6.531,1.169-6.993,5.442a26.3,26.3,0,0,1-1.207,4.315l-1.3-.322-.672-4.016-.98-.117-1.109,5.633-1.231,0M41.2,27.226c.178,2.458.362,4.988.546,7.519l1.191,0,1.31-4.014c.83,5.569,3.825,2.972,5.734,2.756,1.108-.126,2-2.127,3.176-3.5l-4.82-1.537,3.775-1.824-.229-.521L41.2,27.226m3.489,51.63c2.735-2.429,1.855-5.05-.849-8.477L40.33,75.945l4.36,2.91" transform="translate(485.589 3.258)" fill="#fff"/>
    <path id="Path_136920" data-name="Path 136920" d="M20.193,94.673c-.1-1.422-.2-2.844-.249-3.458l-4.808-4.374-6.03,5.365c-.662-2.393-.618-5.623-2.1-6.643S2.51,85.7,0,85.917V0H22.489c1.93,9.663.5,88.31-2.3,94.673M12.439,55.108c.882-6.12-2.223-9.787-7.124-13.621.115,2.181.18,3.4.289,5.449L7.871,44.4a13.755,13.755,0,0,1,.28,2.935c-.5,3.659-1.191,7.295-1.6,10.962-.061.546.892,1.551,1.565,1.774,2.7.9,5.475,1.572,8.222,2.329-.06-.216-.121-.433-.181-.649l4.879-1.019c-.433-1.746-.863-3.483-1.273-5.14l-9.688.992c-.039-.222-.078-.442-.118-.664l2.484-.812M2.191,45.894V61.618c3.738-1.9,4.608-6.324,1.513-8.89,3.306-3.8,3.259-4.01-1.513-6.834M18.555,12.369c-3.581,3.742-.787,6.513-.334,9.352.051.321,1.468.424,2.252.628A44.171,44.171,0,0,0,21.16,15c-.053-.926-1.693-1.76-2.606-2.631" transform="translate(296.144 3.19)" fill="#fff"/>
    <path id="Path_136921" data-name="Path 136921" d="M0,0c7.11,0,13.917-.01,20.723,0C23.581.014,22.9,2.217,22.9,3.8q.049,24.512,0,49.025c0,10.18.177,20.363-.074,30.537A38.16,38.16,0,0,1,20.3,94.938c-.171-1.317-.343-2.634-.441-3.391l-4.94-4.567L8.994,92.525c-.784-2.533-.871-5.551-2.414-6.877C5.468,84.69,2.419,85.983,0,86.3ZM9.609,46.442C8.483,42.565,4.953,43.061,1.822,42.5c.293.972.733,2.11,1.472,2.358a62.071,62.071,0,0,0,6.418,1.5c-4.16,3.4-2.017,8.435-3.2,12.611-.079.279.966,1.11,1.608,1.32,2.731.894,5.508,1.651,8.268,2.457q-.056-.38-.11-.759l4.71-1L19.6,55.364l-.409.956-4.77-1.668c.118-.214-.313.569-.735,1.339a43.147,43.147,0,0,1-2.5-3.955c4.184-3.274-1.248-3.745-1.577-5.594M2.122,61.91c3.6-2.025,4.321-5.744,1.56-8.872,3.336-3.95,2.9-5.464-1.56-6.787ZM19.538,23.291c3.134-4.455,2.335-9.045-1.539-10.273-2.268,3.844-1.942,6.254,1.539,10.273m-8.594,46.2,4.11-2.2c-3.519-1.633-4.861.175-4.8,2.455.045,1.772,1.447,3.51,2.42,5.646l1.88-2.037-3.608-3.863" transform="translate(461.15 2.96)" fill="#fff"/>
    <path id="Path_136922" data-name="Path 136922" d="M11.89,4.732c-1.221.983-2.307,2.434-3.7,2.834-1.772.509-4.376,1.676-4.8-2.99L2.026,8.209l-1.2.046C.588,5.882.351,3.508,0,0L11.481,3.36l.409,1.372" transform="translate(361.731 29.274)"/>
    <path id="Path_136923" data-name="Path 136923" d="M5.98,4.677,4.4,9.169,0,6.18C2.147.626,2.486.417,6.261,2.881,6.513,2,6.74,1.209,7.086,0A15.167,15.167,0,0,1,8.82,1.925,26.759,26.759,0,0,1,5.98,4.677" transform="translate(361.299 73.241)"/>
    <path id="Path_136924" data-name="Path 136924" d="M1.395,8.175C.866,6.507-.392,4.6.12,3.7A10.071,10.071,0,0,1,4.6.074c.771-.359,2.2.687,3.09,1.011L1.395,8.175" transform="translate(390.259 44.386)"/>
    <path id="Path_136925" data-name="Path 136925" d="M0,3.464Q2.546,1.732,5.094,0,6,3.095,6.9,6.191L.41,5.323Q.2,4.394,0,3.464" transform="translate(397.18 35.166)"/>
    <path id="Path_136926" data-name="Path 136926" d="M5.541,0C5.189,4.511,5.189,4.511,0,1.273L5.541,0" transform="translate(394.949 48.18)"/>
    <path id="Path_136927" data-name="Path 136927" d="M12.479,5.762C10.3,5.127,7.473,4.448,4.76,3.467A11.787,11.787,0,0,1,0,.189C2.618,2.714,6.4-2.425,8.641,1.608c.089.161.745-.032,1.129.011,1.3.147,2.606.325,3.908.491-.442,1.106-.956,2.191-1.286,3.33-.1.355.291.854.086.322" transform="translate(159.622 5.67)"/>
    <path id="Path_136928" data-name="Path 136928" d="M10.236,6.728H0c1.581-1.95,3.043-3.881,4.662-5.672A6.67,6.67,0,0,1,6.821,0a6.422,6.422,0,0,0,.4,1.86c.833,1.5,1.8,2.921,3.02,4.868" transform="translate(206.131 16.28)"/>
    <path id="Path_136929" data-name="Path 136929" d="M2.646,5.873H8.972c.058.7.14,1.69.2,2.448L.227,7.543C.022,5.223-1.023,2.041,4.061,0,3.439,2.584,3.051,4.194,2.646,5.873" transform="translate(163.658 41.159)"/>
    <path id="Path_136930" data-name="Path 136930" d="M0,0C3.1,1.312,5.753,1.961,2.977,5.63,1.967,6.966,2.1,9.163.785,10.816L0,0" transform="translate(154.844 37.4)"/>
    <path id="Path_136931" data-name="Path 136931" d="M4.037,0C4.94,2.979,5,5.452,1.346,6.153-.82.487-.674.1,4.037,0" transform="translate(204.16 30.961)"/>
    <path id="Path_136932" data-name="Path 136932" d="M5.891,1.4,1.418,5.6C.913,3.6.5,1.972,0,0L5.891,1.4" transform="translate(157.677 30.954)"/>
    <path id="Path_136933" data-name="Path 136933" d="M3.375,0C4.821,3.283,5.3,6.178,0,6.139L3.375,0" transform="translate(163.982 62.606)"/>
    <path id="Path_136934" data-name="Path 136934" d="M0,5.443C.662,3.34,1.077,2.028,1.716,0L7.009,1.688,0,5.443" transform="translate(164.133 29.851)"/>
    <path id="Path_136935" data-name="Path 136935" d="M5.619,5.322,0,.527.184,0,5.506,3.182l2.981-1.7.216.357L5.619,5.322" transform="translate(156.128 71.007)"/>
    <path id="Path_136936" data-name="Path 136936" d="M.429,5.768C-.444-.282-.338-.431,4.175.311L.429,5.768" transform="translate(154.504 50.341)"/>
    <path id="Path_136937" data-name="Path 136937" d="M2.005,7.771A4.272,4.272,0,0,1,.881,1.536c1.3-2.01,5.065-1.921,6.5-.463l-5.38,6.7" transform="translate(81.454 44.642)"/>
    <path id="Path_136938" data-name="Path 136938" d="M6.975,5.243C5.4,6.075,4.05,7.281,3.488,6.987,2.058,6.238.191,4.93.008,3.632-.141,2.582,1.906,1.223,2.978,0c1.182,1.55,2.364,3.1,4,5.243" transform="translate(89.509 35.083)"/>
    <path id="Path_136939" data-name="Path 136939" d="M0,0C4.912.445,9.62.429,14.114,1.4c4.687,1.013,6.739,4.27,6.726,8.774-.015,5.3-2.213,8.905-7.017,9.934C9.44,21.047,4.874,21.133,0,21.635Z" transform="translate(23.051 59.574)"/>
    <path id="Path_136940" data-name="Path 136940" d="M1.948,12.777A13.961,13.961,0,0,0,4.143,11.9,10.656,10.656,0,0,0,2.874,8.629C2.763,8.45,1.485,9,.56,9.265V4.707c2.205-.193,4.589,0,6.7-.676,3.328-1.059,6.429-2.814,9.728-3.989a2.94,2.94,0,0,1,2.565,1.31c.355.8-.246,2.027-.439,3.117-3.051.219-6,.536-8.948.617C6.48,5.185,7.2,7.2,7.794,9.6c.345,1.385.473,3.835-.264,4.308-3.312,2.126-1.605,4.7-1.157,7.183.242,1.335.677,2.635,1.22,4.691,2.079-.15,4.8-.306,7.5-.587.376-.039,1.04-.929.976-1.023a9.431,9.431,0,0,1-1.829-3.52c1.2.667,2.453,1.264,3.6,2.021,1.2.8,2.3,1.747,4.264,3.262l-6.891.368c3.877,5.834-2.053,4.463-4.631,5.946a40.881,40.881,0,0,0-4.171-5.517C4.669,25.051,2.446,23.866,0,22.161c.495-.809.895-2.195,1.81-2.8,1.581-1.042,4.583-1.265.658-3.406-.582-.318-.368-2.094-.52-3.18" transform="translate(1.319 23.226)"/>
    <path id="Path_136941" data-name="Path 136941" d="M6.441,0l4.642.578L9.941,2.316l3.551,1.31A15.049,15.049,0,0,1,11.74,6.954C10.178,8.7,8.367,10.217,7.053,12.7l4.1-.831L8.761,15.44c-2.084-2.106-3.912-2.893-3.9,1.6L0,14.593,8.282,4.53,6.441,0" transform="translate(38.239 38.489)"/>
    <path id="Path_136942" data-name="Path 136942" d="M10.192,0,7.79,7.362,2.192,2.61,1.3,3.885,0,1.044,10.192,0" transform="translate(11.002 30.844)"/>
    <path id="Path_136943" data-name="Path 136943" d="M0,6.179C2.19,4.313,5.379,2.776,1.049.043,4.534-.351,5.7,1.922,5.379,7.886L0,6.179" transform="translate(3.283 56.946)"/>
    <path id="Path_136944" data-name="Path 136944" d="M4.12,9.563l-2.17.776C.652,6.929-1.557,3.821,1.678,0c.8,3.137,1.539,6.033,2.441,9.563" transform="translate(54.838 63.762)"/>
    <path id="Path_136945" data-name="Path 136945" d="M2.669,6.511A18.584,18.584,0,0,1,.721,3.7,16.14,16.14,0,0,1,0,.413L3.8,0l.28.642L2.311,1.954,4,6.109l-1.329.4" transform="translate(47.506 67.3)"/>
    <path id="Path_136946" data-name="Path 136946" d="M9.87,6.9,0,5.249C2.395,3.694-.089-.6,4.353.071,9.422.84,10.008,1.612,9.87,6.9" transform="translate(265.465 13.719)"/>
    <path id="Path_136947" data-name="Path 136947" d="M0,6.814C3.37,5.632,2.433-1.151,7.05.17l2.3,6.644Z" transform="translate(247.729 15.285)"/>
    <path id="Path_136948" data-name="Path 136948" d="M2.262,10.677,0,5.74C3.229,5.6-.691-1.668,4.346.355a48.851,48.851,0,0,1,.5,5.053c-.011,1.685-.309,3.369-.481,5.053l-2.1.215" transform="translate(235.123 25.175)"/>
    <path id="Path_136949" data-name="Path 136949" d="M0,4.817C.966,2.157,1.469-1.12,5.611.375c.1,1.411.191,2.758.288,4.152L1.389,6.944c.276-1.209.494-2.162.892-3.9L0,4.817" transform="translate(244.093 29.93)"/>
    <path id="Path_136950" data-name="Path 136950" d="M0,1.114,10.683,0q.115.26.229.521L7.137,2.345l4.82,1.537c-1.172,1.369-2.067,3.37-3.176,3.5-1.909.217-4.9,2.814-5.734-2.756-.712,2.184-1.011,3.1-1.31,4.014l-1.191,0C.362,6.1.178,3.572,0,1.114" transform="translate(526.789 29.37)"/>
    <path id="Path_136951" data-name="Path 136951" d="M4.36,8.477,0,5.567,3.511,0c2.7,3.427,3.585,6.048.849,8.477" transform="translate(525.919 73.637)"/>
    <path id="Path_136952" data-name="Path 136952" d="M7.124,13.62l-2.484.812c.039.221.078.442.118.663l9.688-.992c.41,1.659.841,3.395,1.273,5.141L10.84,20.263l.181.649C8.274,20.155,5.5,19.481,2.8,18.583c-.673-.224-1.626-1.227-1.565-1.774.411-3.668,1.1-7.3,1.6-10.963a13.755,13.755,0,0,0-.28-2.934L.288,5.448C.18,3.4.115,2.18,0,0,4.9,3.834,8.006,7.5,7.124,13.62" transform="translate(301.46 44.677)"/>
    <path id="Path_136953" data-name="Path 136953" d="M0,0C4.772,2.824,4.82,3.03,1.513,6.834,4.609,9.4,3.738,13.821,0,15.723Z" transform="translate(298.335 49.084)"/>
    <path id="Path_136954" data-name="Path 136954" d="M1.8,0C2.711.871,4.351,1.705,4.4,2.631A44.162,44.162,0,0,1,3.717,9.98c-.784-.2-2.2-.307-2.252-.628C1.012,6.513-1.782,3.742,1.8,0" transform="translate(312.9 15.559)"/>
    <path id="Path_136955" data-name="Path 136955" d="M3.117.073C3.433,1.933,8.864,2.4,4.68,5.679a43.648,43.648,0,0,0,2.5,3.955l.736-1.339,4.77,1.668.41-.957c.44,1.787.879,3.573,1.382,5.622l-4.711,1c.037.253.073.506.111.759-2.76-.807-5.536-1.564-8.268-2.457C.971,13.721-.075,12.89,0,12.61,1.188,8.435-.954,3.4,3.205,0Z" transform="translate(467.657 49.317)"/>
    <path id="Path_136956" data-name="Path 136956" d="M0,15.659V0C4.459,1.323,4.9,2.837,1.56,6.787,4.321,9.915,3.6,13.634,0,15.659" transform="translate(463.272 49.212)"/>
    <path id="Path_136957" data-name="Path 136957" d="M2.983,10.273C-.5,6.255-.825,3.844,1.443,0,5.318,1.228,6.116,5.817,2.983,10.273" transform="translate(477.706 15.979)"/>
    <path id="Path_136958" data-name="Path 136958" d="M.695,2.829,4.3,6.692,2.422,8.729C1.448,6.593.047,4.856,0,3.084-.055.8,1.286-1,4.805.629l-4.11,2.2" transform="translate(471.4 69.619)"/>
    <path id="Path_136959" data-name="Path 136959" d="M7.889,3.857a62.073,62.073,0,0,1-6.419-1.5C.732,2.111.292.973,0,0,3.13.561,6.659.064,7.794,3.936l.1-.078" transform="translate(462.973 45.46)"/>
  </g>
</svg>
