<svg xmlns="http://www.w3.org/2000/svg" width="31.04" height="21.825" viewBox="0 0 31.04 21.825">
  <g id="mail" transform="translate(0 -76)">
    <g id="Group_163812" data-name="Group 163812" transform="translate(0 76)">
      <path id="Path_136375" data-name="Path 136375" d="M28.311,76H2.728A2.732,2.732,0,0,0,0,78.728V95.1a2.732,2.732,0,0,0,2.728,2.728H28.311A2.731,2.731,0,0,0,31.04,95.1V78.728A2.731,2.731,0,0,0,28.311,76Zm-.382,1.819L17.449,88.244a2.728,2.728,0,0,1-3.86,0L3.11,77.819ZM1.819,94.726V79.1l7.859,7.818Zm1.293,1.28L10.967,88.2,12.3,89.53a4.547,4.547,0,0,0,6.428,0L20.072,88.2l7.856,7.806Zm26.11-1.28-7.859-7.809L29.221,79.1Z" transform="translate(0 -76)" fill="#fdd778"/>
    </g>
  </g>
</svg>
