<svg xmlns="http://www.w3.org/2000/svg" width="48" height="46" viewBox="0 0 48 46">
  <g id="monitor" transform="translate(-1 -2.401)">
    <path id="Path_85935" data-name="Path 85935" d="M35.925,50H32.057v3.094H27.415V50H23.547L22,56.189H37.472Z" transform="translate(-4.754 -10.883)" fill="#5a7396"/>
    <path id="Path_85936" data-name="Path 85936" d="M36.378,50H32.51v3.094H27.868V50H25.547L24,56.189H37.925Z" transform="translate(-5.207 -10.883)" fill="#4b688c"/>
    <rect id="Rectangle_71718" data-name="Rectangle 71718" width="48" height="37" rx="2" transform="translate(1 2.401)" fill="#6e82a7"/>
    <rect id="Rectangle_71719" data-name="Rectangle 71719" width="46.803" height="35.973" rx="2" transform="translate(2.16 3.144)" fill="#5a7396"/>
    <path id="Path_85937" data-name="Path 85937" d="M4,5H47.322V35.171H4Z" transform="translate(-0.679 -0.695)" fill="#eef"/>
    <path id="Path_85938" data-name="Path 85938" d="M6,7H47.775V35.624H6Z" transform="translate(-1.132 -1.148)" fill="#f8f8ff"/>
    <path id="Path_85939" data-name="Path 85939" d="M54.377,47.41H52.83a.58.58,0,1,1,0-1.16h1.547a.58.58,0,1,1,0,1.16Z" transform="translate(-11.602 -10.034)" fill="#b1dbff"/>
    <path id="Path_85940" data-name="Path 85940" d="M59.377,47.41H57.83a.58.58,0,1,1,0-1.16h1.547a.58.58,0,1,1,0,1.16Z" transform="translate(-12.734 -10.034)" fill="#b1dbff"/>
    <path id="Path_85941" data-name="Path 85941" d="M49.377,47.41H47.83a.58.58,0,1,1,0-1.16h1.547a.58.58,0,1,1,0,1.16Z" transform="translate(-10.471 -10.034)" fill="#b1dbff"/>
    <path id="Path_85942" data-name="Path 85942" d="M21.321,58H36.793a2.321,2.321,0,0,1,2.321,2.321v.774H19v-.774A2.321,2.321,0,0,1,21.321,58Z" transform="translate(-4.075 -12.694)" fill="#6e82a7"/>
    <path id="Path_85943" data-name="Path 85943" d="M23.362,60a2.313,2.313,0,0,0-2.178,1.547H39.608v-.774a2.308,2.308,0,0,0-.108-.665A2.308,2.308,0,0,0,38.835,60Z" transform="translate(-4.569 -13.147)" fill="#5a7396"/>
    <rect id="Rectangle_71720" data-name="Rectangle 71720" width="16.633" height="6.576" rx="0.75" transform="translate(27.496 6.819)" fill="#f06482"/>
    <g id="Group_147922" data-name="Group 147922" transform="translate(5.835 15.329)">
      <path id="Path_85944" data-name="Path 85944" d="M54.925,40.41H51.83a.58.58,0,1,1,0-1.16h3.094a.58.58,0,0,1,0,1.16Z" transform="translate(-17.211 -23.778)" fill="#5a7396"/>
      <path id="Path_85945" data-name="Path 85945" d="M42.039,40.41H18.83a.58.58,0,1,1,0-1.16H42.039a.58.58,0,1,1,0,1.16Z" transform="translate(-9.74 -23.778)" fill="#5a7396"/>
      <path id="Path_85946" data-name="Path 85946" d="M14.019,40.41H7.83a.58.58,0,1,1,0-1.16h6.189a.58.58,0,1,1,0,1.16Z" transform="translate(-7.25 -23.778)" fill="#5a7396"/>
      <path id="Path_85947" data-name="Path 85947" d="M51.755,36.41H37.83a.58.58,0,1,1,0-1.16H51.755a.58.58,0,1,1,0,1.16Z" transform="translate(-14.042 -22.872)" fill="#5a7396"/>
      <path id="Path_85948" data-name="Path 85948" d="M27.944,36.41H7.83a.58.58,0,1,1,0-1.16H27.944a.58.58,0,1,1,0,1.16Z" transform="translate(-7.25 -22.872)" fill="#5a7396"/>
      <path id="Path_85949" data-name="Path 85949" d="M53.34,32.41H44.83a.58.58,0,0,1,0-1.16h8.51a.58.58,0,1,1,0,1.16Z" transform="translate(-15.626 -21.967)" fill="#5a7396"/>
      <path id="Path_85950" data-name="Path 85950" d="M37.076,32.41H20.83a.58.58,0,0,1,0-1.16H37.076a.58.58,0,0,1,0,1.16Z" transform="translate(-10.193 -21.967)" fill="#5a7396"/>
      <path id="Path_85951" data-name="Path 85951" d="M15.566,32.41H7.83a.58.58,0,1,1,0-1.16h7.736a.58.58,0,0,1,0,1.16Z" transform="translate(-7.25 -21.967)" fill="#5a7396"/>
      <path id="Path_85952" data-name="Path 85952" d="M51.3,28.41H35.83a.58.58,0,1,1,0-1.16H51.3a.58.58,0,0,1,0,1.16Z" transform="translate(-13.589 -21.061)" fill="#5a7396"/>
      <path id="Path_85953" data-name="Path 85953" d="M45.114,24.41H35.83a.58.58,0,1,1,0-1.16h9.283a.58.58,0,1,1,0,1.16Z" transform="translate(-13.589 -20.156)" fill="#5a7396"/>
      <path id="Path_85954" data-name="Path 85954" d="M54.7,24.41H50.83a.58.58,0,0,1,0-1.16H54.7a.58.58,0,0,1,0,1.16Z" transform="translate(-16.985 -20.156)" fill="#5a7396"/>
      <path id="Path_85955" data-name="Path 85955" d="M51.3,20.41H35.83a.58.58,0,1,1,0-1.16H51.3a.58.58,0,0,1,0,1.16Z" transform="translate(-13.589 -19.25)" fill="#5a7396"/>
    </g>
    <path id="Path_85956" data-name="Path 85956" d="M12.756,9h9.961a1.547,1.547,0,0,1,1.5,1.172l1.254,5.017H10l1.254-5.017A1.547,1.547,0,0,1,12.756,9Z" transform="translate(-2.038 -1.601)" fill="#e54871"/>
    <path id="Path_85957" data-name="Path 85957" d="M23.039,10.5H13.077a.387.387,0,0,0-.375.293l-1.28,5.122H24.695l-1.28-5.122A.387.387,0,0,0,23.039,10.5Z" transform="translate(-2.359 -1.94)" fill="#9ec9ff"/>
    <path id="Path_85958" data-name="Path 85958" d="M24.921,16.142,23.761,11.5H13.883a.387.387,0,0,0-.375.293l-1.087,4.348Z" transform="translate(-2.586 -2.167)" fill="#b1dbff"/>
    <path id="Path_85959" data-name="Path 85959" d="M9.547,17H25.019a2.8,2.8,0,0,1,1.547,2.5v3.685H8V19.5A2.8,2.8,0,0,1,9.547,17Z" transform="translate(-1.585 -3.412)" fill="#f3839b"/>
    <path id="Path_85960" data-name="Path 85960" d="M25.359,17H11.047A2.8,2.8,0,0,0,9.5,19.5v3.685H26.906V19.5A2.8,2.8,0,0,0,25.359,17Z" transform="translate(-1.924 -3.412)" fill="#f06482"/>
    <path id="Path_85961" data-name="Path 85961" d="M10,25h3.094v1.547a.774.774,0,0,1-.774.774H10.774A.774.774,0,0,1,10,26.547Z" transform="translate(-2.038 -5.223)" fill="#5a7396"/>
    <path id="Path_85962" data-name="Path 85962" d="M.774,0H2.321a.774.774,0,0,1,.774.774V2.321H0V.774A.774.774,0,0,1,.774,0Z" transform="translate(23.435 22.098) rotate(180)" fill="#5a7396"/>
    <path id="Path_85963" data-name="Path 85963" d="M11.6,21.41H10.83a.58.58,0,0,1,0-1.16H11.6a.58.58,0,0,1,0,1.16Z" transform="translate(-2.094 -4.148)" fill="#ffde80"/>
    <path id="Path_85964" data-name="Path 85964" d="M28.6,21.41H27.83a.58.58,0,0,1,0-1.16H28.6a.58.58,0,0,1,0,1.16Z" transform="translate(-5.943 -4.148)" fill="#ffde80"/>
    <path id="Path_85965" data-name="Path 85965" d="M17.547,21h3.094a1.547,1.547,0,0,1,1.547,1.547v1.547H16V22.547A1.547,1.547,0,0,1,17.547,21Z" transform="translate(-3.396 -4.317)" fill="#5a7396"/>
  </g>
</svg>
