<svg id="pinterest" xmlns="http://www.w3.org/2000/svg" width="31.148" height="31.148" viewBox="0 0 31.148 31.148">
  <ellipse id="Ellipse_11" data-name="Ellipse 11" cx="15.574" cy="15.574" rx="15.574" ry="15.574" transform="translate(0 0)" fill="#cb2027"/>
  <g id="Group_15" data-name="Group 15" transform="translate(8.111 6.916)">
    <path id="Path_70" data-name="Path 70" d="M37.71,38.509c-1.168-.09-1.659-.67-2.575-1.226-.5,2.642-1.119,5.174-2.941,6.5-.563-3.992.826-6.991,1.471-10.174-1.1-1.851.132-5.576,2.451-4.658,2.854,1.129-2.471,6.882,1.1,7.6,3.732.75,5.256-6.476,2.941-8.826-3.344-3.393-9.734-.077-8.948,4.781.191,1.188,1.419,1.548.49,3.187-2.14-.474-2.779-2.162-2.7-4.412a7.2,7.2,0,0,1,6.5-6.62c4.031-.451,7.814,1.48,8.336,5.271.587,4.279-1.82,8.913-6.129,8.581Z" transform="translate(-29 -24.593)" fill="#f1f2f2"/>
  </g>
</svg>
