<svg id="uber-2" xmlns="http://www.w3.org/2000/svg" width="115.94" height="40.249" viewBox="0 0 115.94 40.249">
  <path id="Path_136975" data-name="Path 136975" d="M6.67,28.745A9.913,9.913,0,0,0,8.706,32.08a8.757,8.757,0,0,0,3.081,2.12,10.051,10.051,0,0,0,3.872.735,9.582,9.582,0,0,0,3.816-.763,9.386,9.386,0,0,0,3.109-2.148,9.739,9.739,0,0,0,2.063-3.307,11.948,11.948,0,0,0,.735-4.3V0h5.936V39.571H25.438V35.9a13.628,13.628,0,0,1-4.664,3.222,14.78,14.78,0,0,1-5.794,1.131,15.688,15.688,0,0,1-5.907-1.1,13.831,13.831,0,0,1-4.748-3.137,14.8,14.8,0,0,1-3.166-4.89A16.764,16.764,0,0,1,0,24.76V0H5.936V24.421a12.179,12.179,0,0,0,.735,4.324ZM41.549,0V14.415a15.12,15.12,0,0,1,4.579-3.137,13.727,13.727,0,0,1,5.653-1.159,14.907,14.907,0,0,1,5.936,1.187,14.954,14.954,0,0,1,8.027,8.027,14.768,14.768,0,0,1,1.187,5.879,14.565,14.565,0,0,1-1.187,5.851,15.028,15.028,0,0,1-8.027,8,14.908,14.908,0,0,1-5.936,1.187A13.924,13.924,0,0,1,46.1,39.09a15.017,15.017,0,0,1-4.607-3.137V39.57H35.839V0Zm.65,29.113a9.835,9.835,0,0,0,2.12,3.166,10.23,10.23,0,0,0,3.166,2.148,9.624,9.624,0,0,0,3.9.791,9.485,9.485,0,0,0,3.844-.791,9.889,9.889,0,0,0,3.137-2.148,10.484,10.484,0,0,0,2.12-3.166,9.623,9.623,0,0,0,.791-3.9,9.824,9.824,0,0,0-.791-3.929,10.39,10.39,0,0,0-2.12-3.194,9.518,9.518,0,0,0-3.137-2.12,9.938,9.938,0,0,0-10.854,2.12,10.14,10.14,0,0,0-2.148,3.194,9.824,9.824,0,0,0-.791,3.929A9.929,9.929,0,0,0,42.2,29.113ZM70.152,19.39a15.379,15.379,0,0,1,3.109-4.777A14.957,14.957,0,0,1,89.6,11.306a13.676,13.676,0,0,1,4.579,3.137,14.341,14.341,0,0,1,3,4.748,16.208,16.208,0,0,1,1.074,5.964v1.865H74.787a9.667,9.667,0,0,0,1.131,3.25,9.8,9.8,0,0,0,2.12,2.6A9.688,9.688,0,0,0,80.921,34.6a9.415,9.415,0,0,0,3.42.622,9.89,9.89,0,0,0,8.31-4.24l4.127,3.053a15.06,15.06,0,0,1-12.436,6.162,15.92,15.92,0,0,1-6.02-1.131A14.66,14.66,0,0,1,73.459,35.9a15.018,15.018,0,0,1-3.25-4.777,15.424,15.424,0,0,1-.057-11.73Zm7.942-2.233A9.635,9.635,0,0,0,74.9,22.5H92.481a9.351,9.351,0,0,0-3.137-5.342,8.886,8.886,0,0,0-11.249,0Zm30.836.65a7.654,7.654,0,0,0-1.809,5.37V39.571h-5.71V10.741h5.653V14.3a8.035,8.035,0,0,1,2.8-2.77,7.919,7.919,0,0,1,4.1-1.018h1.978v5.314h-2.374a6,6,0,0,0-4.635,1.979Z" fill="#fff"/>
</svg>
