<svg id="youtube" xmlns="http://www.w3.org/2000/svg" width="42" height="29.407" viewBox="0 0 42 29.407">
  <path id="Path_74" data-name="Path 74" d="M41.135,4.6a5.262,5.262,0,0,0-3.7-3.7C34.146,0,21,0,21,0S7.853,0,4.566.865A5.37,5.37,0,0,0,.865,4.6C0,7.888,0,14.7,0,14.7s0,6.85.865,10.1a5.263,5.263,0,0,0,3.7,3.7c3.321.9,16.433.9,16.433.9s13.146,0,16.433-.865a5.262,5.262,0,0,0,3.7-3.7c.865-3.287.865-10.1.865-10.1s.035-6.85-.865-10.137Zm0,0" transform="translate(0 0)" fill="red"/>
  <path id="Path_75" data-name="Path 75" d="M204.969,115.077l10.932-6.3-10.932-6.3Zm0,0" transform="translate(-188.155 -94.078)" fill="#fff"/>
</svg>
